<?xml version="1.0" encoding="iso-8859-1"?>
<!-- Generator: Adobe Illustrator 19.0.0, SVG Export Plug-In . SVG Version: 6.00 Build 0)  -->
<svg version="1.1" id="Capa_1" xmlns="http://www.w3.org/2000/svg" xmlns:xlink="http://www.w3.org/1999/xlink" x="0px" y="0px"
	 viewBox="0 0 511.999 511.999" style="enable-background:new 0 0 511.999 511.999;" xml:space="preserve">
<g>
	<polygon style="fill:#EF2648;" points="34.842,488.172 18.109,482.595 79.312,298.952 60.867,59.19 289.606,114.092 
		436.466,19.071 446.05,33.88 292.854,133.013 80.335,82.012 97.191,301.158 96.618,302.844 	"/>
	
		<rect x="379.477" y="34.884" transform="matrix(-0.0905 0.9959 -0.9959 -0.0905 555.2584 -242.3726)" style="fill:#EF2648;" width="17.65" height="194.948"/>
	
		<rect x="110.314" y="295.055" transform="matrix(-0.9487 0.3162 -0.3162 -0.9487 356.3447 727.6793)" style="fill:#EF2648;" width="17.642" height="195.39"/>
	<polygon style="fill:#EF2648;" points="233.496,407.448 194.356,231.369 211.601,227.539 243.062,369.165 337.483,259.009 
		350.879,270.5 	"/>
	
		<rect x="330.974" y="309.91" transform="matrix(-0.2524 0.9676 -0.9676 -0.2524 826.9304 190.6951)" style="fill:#EF2648;" width="17.65" height="209.769"/>
</g>
<circle style="fill:#B7E5FF;" cx="70.601" cy="70.601" r="70.601"/>
<path style="fill:#99C8E0;" d="M110.888,12.664c22.275,31.974,14.403,75.949-17.571,98.224c-24.234,16.883-56.419,16.883-80.653,0
	c22.178,32.071,66.153,40.093,98.224,17.924s40.093-66.153,17.924-98.224C123.967,23.581,117.895,17.509,110.888,12.664z"/>
<circle style="fill:#B7E5FF;" cx="441.258" cy="441.258" r="70.601"/>
<path style="fill:#99C8E0;" d="M481.544,383.32c22.275,31.974,14.403,75.949-17.571,98.224c-24.234,16.883-56.419,16.883-80.653,0
	c22.178,32.071,66.153,40.093,98.224,17.924c32.071-22.178,40.093-66.153,17.924-98.224
	C494.623,394.237,488.552,388.165,481.544,383.32z"/>
<circle style="fill:#4DB5FF;" cx="238.279" cy="388.307" r="44.126"/>
<path style="fill:#3596D8;" d="M264.649,353.112c14.667,19.336,10.881,46.897-8.446,61.564c-15.7,11.914-37.419,11.914-53.119,0
	c14.5,19.504,42.061,23.563,61.564,9.072c19.504-14.5,23.563-42.061,9.072-61.564C271.153,358.734,268.099,355.671,264.649,353.112z
	"/>
<circle style="fill:#4DB5FF;" cx="88.252" cy="300.055" r="44.126"/>
<path style="fill:#3596D8;" d="M114.621,264.86c14.667,19.336,10.881,46.897-8.446,61.564c-15.7,11.914-37.419,11.914-53.119,0
	c14.5,19.504,42.061,23.563,61.564,9.072c19.504-14.5,23.563-42.061,9.072-61.564C121.125,270.482,118.072,267.42,114.621,264.86z"
	/>
<circle style="fill:#4DB5FF;" cx="291.23" cy="123.552" r="44.126"/>
<path style="fill:#3596D8;" d="M317.6,88.357c14.667,19.336,10.881,46.897-8.446,61.564c-15.7,11.914-37.419,11.914-53.119,0
	c14.5,19.504,42.061,23.563,61.564,9.072c19.504-14.5,23.563-42.061,9.072-61.564C324.104,93.979,321.05,90.917,317.6,88.357z"/>
<circle style="fill:#235087;" cx="26.475" cy="485.383" r="26.475"/>
<path style="fill:#163768;" d="M40.19,462.844c2.559,4.121,3.918,8.869,3.936,13.714c0,14.623-11.852,26.475-26.475,26.475
	c-4.845-0.018-9.593-1.377-13.714-3.936c7.537,12.479,23.775,16.485,36.254,8.949s16.485-23.775,8.949-36.254
	C46.923,468.13,43.852,465.059,40.19,462.844z"/>
<circle style="fill:#235087;" cx="150.028" cy="485.383" r="26.475"/>
<path style="fill:#163768;" d="M163.742,462.844c2.559,4.121,3.918,8.869,3.936,13.714c0,14.623-11.852,26.475-26.475,26.475
	c-4.845-0.018-9.593-1.377-13.714-3.936c7.537,12.479,23.775,16.485,36.254,8.949c12.479-7.537,16.485-23.775,8.949-36.254
	C170.475,468.13,167.404,465.059,163.742,462.844z"/>
<circle style="fill:#235087;" cx="202.979" cy="229.454" r="26.475"/>
<path style="fill:#163768;" d="M216.693,206.914c2.559,4.121,3.918,8.869,3.936,13.714c0,14.623-11.852,26.475-26.475,26.475
	c-4.845-0.018-9.593-1.377-13.714-3.936c7.537,12.479,23.775,16.485,36.254,8.949c12.479-7.537,16.485-23.775,8.949-36.254
	C223.426,212.201,220.355,209.13,216.693,206.914z"/>
<circle style="fill:#235087;" cx="344.181" cy="264.755" r="26.475"/>
<path style="fill:#163768;" d="M357.895,242.215c2.559,4.121,3.918,8.869,3.936,13.714c0,14.623-11.852,26.475-26.475,26.475
	c-4.845-0.018-9.593-1.377-13.714-3.936c7.537,12.479,23.775,16.485,36.254,8.949c12.479-7.537,16.485-23.775,8.949-36.254
	C364.629,247.501,361.558,244.43,357.895,242.215z"/>
<circle style="fill:#235087;" cx="485.383" cy="141.202" r="26.475"/>
<path style="fill:#163768;" d="M499.098,118.663c2.559,4.121,3.918,8.869,3.936,13.714c0,14.623-11.852,26.475-26.475,26.475
	c-4.845-0.018-9.593-1.377-13.714-3.936c7.537,12.479,23.775,16.485,36.254,8.949c12.479-7.537,16.485-23.775,8.949-36.254
	C505.831,123.949,502.76,120.878,499.098,118.663z"/>
<circle style="fill:#235087;" cx="441.258" cy="26.475" r="26.475"/>
<path style="fill:#163768;" d="M454.972,3.936c2.559,4.121,3.918,8.869,3.936,13.714c0,14.623-11.852,26.475-26.475,26.475
	c-4.845-0.018-9.593-1.377-13.714-3.936c7.537,12.479,23.775,16.485,36.254,8.949c12.479-7.537,16.485-23.775,8.949-36.254
	C461.705,9.222,458.634,6.151,454.972,3.936z"/>
<g>
</g>
<g>
</g>
<g>
</g>
<g>
</g>
<g>
</g>
<g>
</g>
<g>
</g>
<g>
</g>
<g>
</g>
<g>
</g>
<g>
</g>
<g>
</g>
<g>
</g>
<g>
</g>
<g>
</g>
</svg>
